<svg width="302" height="70" viewBox="0 0 302 70" fill="none" xmlns="http://www.w3.org/2000/svg">
<g clip-path="url(#clip0_830_2)">
<path d="M19.0264 51.6261H138.149L149.533 68.1791L160.917 51.6261H280.039C289.91 51.6261 297.941 41.2299 297.941 28.4517C297.941 15.6735 289.91 5.27747 280.039 5.27747H19.0264C9.15502 5.27747 1.12402 15.6736 1.12402 28.4517C1.12402 41.2298 9.15502 51.6261 19.0264 51.6261Z" fill="black"/>
<path d="M149.533 69.3033C149.163 69.3033 148.817 69.1213 148.607 68.8161L137.558 52.7502H19.0268C8.5354 52.7502 0 41.85 0 28.4517C0 15.0534 8.5354 4.15295 19.0268 4.15295H280.039C290.531 4.15295 299.066 15.0533 299.066 28.4517C299.066 41.8501 290.531 52.7502 280.039 52.7502H161.509L150.46 68.8161C150.25 69.1213 149.904 69.3033 149.533 69.3033ZM19.0268 6.40175C9.7756 6.40175 2.2487 16.2935 2.2487 28.4517C2.2487 40.6099 9.7756 50.5015 19.0268 50.5015H138.149C138.519 50.5015 138.866 50.6835 139.075 50.9887L149.533 66.1948L159.991 50.9887C160.201 50.6835 160.547 50.5015 160.917 50.5015H280.039C289.291 50.5015 296.818 40.6098 296.818 28.4517C296.818 16.2936 289.291 6.40175 280.039 6.40175H19.0268Z" fill="black"/>
<path d="M21.7579 47.4729H140.88L152.264 64.0259L163.648 47.4729H282.771C292.642 47.4729 300.673 37.0767 300.673 24.2985C300.673 11.5203 292.642 1.12427 282.771 1.12427H21.7579C11.8866 1.12427 3.85547 11.5204 3.85547 24.2985C3.85547 37.0766 11.8866 47.4729 21.7579 47.4729Z" fill="white"/>
<path d="M152.264 65.1503C151.894 65.1503 151.548 64.9682 151.338 64.663L140.289 48.5972H21.7581C11.2667 48.5972 2.73145 37.6969 2.73145 24.2985C2.73145 10.9001 11.2667 0 21.7581 0H282.771C293.262 0 301.798 10.9002 301.798 24.2985C301.798 37.6968 293.262 48.5972 282.771 48.5972H164.24L153.191 64.663C152.981 64.9682 152.635 65.1503 152.264 65.1503ZM21.7581 2.2486C12.5069 2.2486 4.98015 12.1404 4.98015 24.2985C4.98015 36.4566 12.5069 46.3484 21.7581 46.3484H140.88C141.251 46.3484 141.597 46.5304 141.807 46.8357L152.264 62.0417L162.722 46.8357C162.932 46.5304 163.278 46.3484 163.649 46.3484H282.771C292.022 46.3484 299.549 36.4567 299.549 24.2985C299.549 12.1403 292.022 2.2486 282.771 2.2486H21.7581Z" fill="black"/>
<path d="M45.2066 18.176C47.5466 18.464 52.5326 19.49 54.8006 20.282L54.0806 22.046C51.9386 21.254 47.0426 20.174 44.5406 19.85L45.2066 18.176ZM44.3786 22.964C46.8986 23.396 51.3446 24.332 53.5946 25.142L52.8926 26.906C50.8226 26.096 46.3226 25.088 43.7126 24.674L44.3786 22.964ZM43.4246 28.166C46.4666 28.652 51.8306 29.912 54.2966 30.866L53.5226 32.63C51.1106 31.604 45.6206 30.38 42.7226 29.93L43.4246 28.166ZM61.1906 20.066C61.8026 20.12 62.5046 20.156 63.1166 20.156C64.4126 20.156 69.7586 20.156 70.7126 20.156C71.3966 20.156 72.0806 20.12 72.5846 20.066V22.118C72.0806 22.1 71.3246 22.064 70.7126 22.064C69.7946 22.064 64.0526 22.064 63.1166 22.064C62.4686 22.064 61.7666 22.1 61.1906 22.118V20.066ZM59.6606 28.94C60.3086 28.976 61.0286 29.03 61.7126 29.03C62.7926 29.03 71.2166 29.03 72.2966 29.03C72.8546 29.03 73.5206 28.994 74.0786 28.94V31.118C73.5026 31.046 72.8006 31.01 72.2966 31.01C71.2166 31.01 62.7926 31.01 61.7126 31.01C61.0286 31.01 60.2906 31.064 59.6606 31.118V28.94ZM79.1546 32L76.4546 18.752H78.6146L79.8386 25.646C80.0906 27.05 80.3246 28.472 80.5586 29.912H80.6306C80.9186 28.472 81.2246 27.05 81.5306 25.646L83.2226 18.752H85.0766L86.7866 25.646C87.1106 27.032 87.3806 28.472 87.7046 29.912H87.7946C88.0106 28.472 88.2446 27.05 88.4606 25.646L89.7206 18.752H91.7186L89.1086 32H86.5166L84.7526 24.638C84.5186 23.612 84.3206 22.622 84.1406 21.614H84.0686C83.8706 22.622 83.6366 23.612 83.4386 24.638L81.6926 32H79.1546ZM93.8706 32V18.752H101.719V20.516H95.9766V24.188H100.819V25.97H95.9766V30.236H101.917V32H93.8706ZM104.664 32V18.752H108.786C111.486 18.752 113.448 19.616 113.448 22.01C113.448 23.288 112.764 24.476 111.576 24.89V24.962C113.088 25.286 114.168 26.33 114.168 28.112C114.168 30.74 112.044 32 109.11 32H104.664ZM106.77 24.278H108.552C110.568 24.278 111.396 23.522 111.396 22.298C111.396 20.912 110.46 20.39 108.606 20.39H106.77V24.278ZM106.77 30.362H108.876C110.928 30.362 112.116 29.624 112.116 28.022C112.116 26.528 110.982 25.862 108.876 25.862H106.77V30.362ZM131.879 19.832C131.717 20.03 131.447 20.372 131.303 20.606C130.529 21.902 128.819 24.206 126.893 25.556L125.399 24.368C126.965 23.45 128.531 21.65 129.071 20.642C127.883 20.642 120.161 20.642 119.189 20.642C118.487 20.642 117.839 20.678 117.083 20.75V18.734C117.731 18.842 118.487 18.914 119.189 18.914C120.161 18.914 128.225 18.914 129.251 18.914C129.665 18.914 130.457 18.86 130.763 18.77L131.879 19.832ZM124.625 22.226C124.625 26.924 124.337 30.38 119.621 32.828L117.947 31.478C118.487 31.298 119.117 30.992 119.693 30.578C122.267 28.922 122.663 26.654 122.663 23.666C122.663 23.18 122.645 22.748 122.573 22.226H124.625ZM147.413 18.968C147.413 19.58 147.917 20.084 148.547 20.084C149.159 20.084 149.663 19.58 149.663 18.968C149.663 18.338 149.159 17.834 148.547 17.834C147.917 17.834 147.413 18.338 147.413 18.968ZM146.459 18.968C146.459 17.816 147.395 16.88 148.547 16.88C149.681 16.88 150.617 17.816 150.617 18.968C150.617 20.102 149.681 21.038 148.547 21.038C147.395 21.038 146.459 20.102 146.459 18.968ZM148.295 20.264C148.151 20.552 148.061 20.948 147.971 21.308C147.575 23.144 146.747 26.006 145.271 27.914C143.651 30.056 141.383 31.766 138.125 32.81L136.577 31.1C140.105 30.254 142.139 28.706 143.615 26.816C144.857 25.25 145.631 22.946 145.865 21.29C144.803 21.29 138.197 21.29 137.027 21.29C136.253 21.29 135.533 21.326 135.083 21.362V19.346C135.587 19.418 136.433 19.49 137.027 19.49C138.197 19.49 144.839 19.49 145.757 19.49C146.063 19.49 146.513 19.472 146.909 19.364L148.295 20.264ZM165.107 18.212C165.071 18.68 165.053 19.22 165.053 19.886C165.053 20.696 165.053 22.316 165.053 23.072C165.053 27.212 164.387 28.742 163.073 30.254C161.903 31.604 160.067 32.432 158.753 32.864L157.277 31.298C158.987 30.884 160.481 30.182 161.579 28.958C162.839 27.536 163.073 26.114 163.073 22.982C163.073 22.19 163.073 20.588 163.073 19.886C163.073 19.22 163.037 18.68 162.965 18.212H165.107ZM156.755 18.356C156.719 18.734 156.701 19.202 156.701 19.688C156.701 20.336 156.701 24.872 156.701 25.736C156.701 26.186 156.719 26.834 156.755 27.194H154.685C154.721 26.888 154.775 26.258 154.775 25.718C154.775 24.836 154.775 20.336 154.775 19.688C154.775 19.364 154.757 18.734 154.703 18.356H156.755ZM179.291 19.706C179.057 21.56 178.697 23.666 178.103 25.664C177.005 29.336 175.529 31.388 173.729 31.388C171.947 31.388 170.327 29.39 170.327 26.384C170.327 22.37 173.855 18.896 178.373 18.896C182.693 18.896 185.429 21.92 185.429 25.7C185.429 29.48 183.017 32.072 178.625 32.684L177.563 31.01C178.193 30.938 178.715 30.848 179.165 30.758C181.469 30.218 183.539 28.526 183.539 25.628C183.539 22.766 181.649 20.552 178.337 20.552C174.431 20.552 172.127 23.738 172.127 26.222C172.127 28.292 173.027 29.246 173.783 29.246C174.593 29.246 175.439 28.058 176.285 25.286C176.807 23.576 177.203 21.524 177.383 19.652L179.291 19.706ZM193.205 26.006H204.185V27.356H193.205V26.006ZM194.645 29.102L195.527 28.076C196.427 28.616 197.597 29.426 198.173 29.966L197.237 31.136C196.697 30.542 195.545 29.678 194.645 29.102ZM200.495 25.124L201.323 24.35C201.953 24.71 202.727 25.25 203.105 25.646L202.223 26.492C201.863 26.096 201.107 25.502 200.495 25.124ZM194.465 26.672H195.995C195.797 29.444 195.275 31.964 193.151 33.494C192.935 33.152 192.503 32.612 192.143 32.36C193.961 31.118 194.339 28.922 194.465 26.672ZM197.651 16.826H199.145C199.037 25.466 200.297 32.09 202.619 32.09C203.105 32.09 203.285 31.712 203.375 30.164C203.681 30.488 204.167 30.776 204.509 30.92C204.257 32.972 203.789 33.548 202.493 33.548C198.731 33.53 197.669 25.898 197.651 16.826ZM201.719 27.5L203.159 28.04C201.953 30.542 199.739 32.396 196.985 33.512C196.787 33.206 196.355 32.702 196.067 32.414C198.713 31.442 200.729 29.696 201.719 27.5ZM199.073 20.066L199.739 19.13C200.513 19.67 201.413 20.498 201.827 21.056L201.143 22.118C200.729 21.524 199.829 20.66 199.073 20.066ZM202.439 22.208L203.429 21.812C203.915 22.658 204.365 23.756 204.491 24.458L203.429 24.926C203.285 24.206 202.889 23.054 202.439 22.208ZM199.343 23.324C200.459 23.27 201.917 23.162 203.465 23.054L203.483 24.17C202.097 24.332 200.783 24.476 199.595 24.602L199.343 23.324ZM201.125 16.952L202.421 17.456C201.881 18.464 201.269 19.616 200.765 20.354L199.829 19.922C200.279 19.13 200.837 17.852 201.125 16.952ZM202.619 18.824L203.825 19.4C202.889 20.93 201.665 22.82 200.693 24.008L199.775 23.486C200.729 22.262 201.935 20.246 202.619 18.824ZM192.899 20.066L193.565 19.13C194.339 19.67 195.239 20.498 195.653 21.056L194.951 22.118C194.555 21.524 193.655 20.66 192.899 20.066ZM195.995 22.352L196.985 22.01C197.435 22.856 197.813 23.972 197.921 24.656L196.859 25.088C196.751 24.368 196.391 23.234 195.995 22.352ZM192.989 23.576C194.105 23.504 195.563 23.396 197.129 23.27L197.147 24.458C195.761 24.62 194.411 24.746 193.223 24.872L192.989 23.576ZM194.951 16.952L196.229 17.474C195.689 18.464 195.077 19.652 194.591 20.39L193.655 19.976C194.087 19.166 194.645 17.852 194.951 16.952ZM196.445 18.824L197.651 19.4C196.679 21.002 195.401 22.964 194.375 24.206L193.457 23.702C194.465 22.424 195.725 20.318 196.445 18.824ZM187.805 20.642H193.277V22.208H187.805V20.642ZM189.929 16.808H191.459V33.512H189.929V16.808ZM189.893 21.668L190.829 21.974C190.361 24.8 189.353 28.31 188.183 30.128C188.021 29.714 187.661 29.066 187.409 28.706C188.471 27.104 189.479 24.098 189.893 21.668ZM191.369 22.856C191.729 23.342 193.133 25.61 193.421 26.132L192.575 27.338C192.215 26.366 191.153 24.242 190.721 23.486L191.369 22.856ZM208.469 16.772L210.233 17.168C209.585 18.734 208.757 20.48 208.055 21.614L206.579 21.218C207.263 20.03 208.055 18.14 208.469 16.772ZM205.571 20.534C207.479 20.48 210.377 20.354 213.185 20.228L213.167 21.722C210.503 21.902 207.713 22.046 205.715 22.172L205.571 20.534ZM206.651 23.27H212.375V24.692H208.235V33.494H206.651V23.27ZM211.565 23.27H213.257V31.694C213.257 32.486 213.095 32.936 212.555 33.188C211.997 33.458 211.205 33.476 210.089 33.476C209.999 33.026 209.747 32.36 209.531 31.946C210.287 31.982 211.025 31.964 211.277 31.946C211.511 31.946 211.565 31.892 211.565 31.658V23.27ZM207.389 25.97H212.501V27.266H207.389V25.97ZM207.389 28.652H212.501V29.948H207.389V28.652ZM214.823 16.862H216.515V22.586C216.515 23.18 216.659 23.288 217.415 23.288C217.757 23.288 219.431 23.288 219.881 23.288C220.529 23.288 220.655 23 220.727 21.29C221.087 21.578 221.771 21.83 222.257 21.938C222.059 24.206 221.591 24.818 220.043 24.818C219.629 24.818 217.595 24.818 217.217 24.818C215.309 24.818 214.823 24.314 214.823 22.604V16.862ZM220.295 18.068L221.393 19.31C219.827 20.066 217.703 20.75 215.885 21.254C215.795 20.912 215.579 20.408 215.381 20.066C217.109 19.526 219.089 18.734 220.295 18.068ZM214.823 25.25H216.515V31.154C216.515 31.784 216.659 31.874 217.451 31.874C217.793 31.874 219.539 31.874 220.007 31.874C220.727 31.874 220.835 31.55 220.925 29.588C221.303 29.858 221.969 30.128 222.437 30.236C222.239 32.702 221.771 33.386 220.169 33.386C219.737 33.386 217.649 33.386 217.235 33.386C215.327 33.386 214.823 32.882 214.823 31.172V25.25ZM220.475 26.132L221.591 27.392C220.025 28.274 217.775 29.012 215.867 29.534C215.795 29.21 215.543 28.67 215.363 28.328C217.181 27.77 219.251 26.924 220.475 26.132ZM210.809 18.59L212.231 18.05C213.149 19.31 214.139 21.002 214.517 22.154L212.987 22.784C212.645 21.668 211.709 19.904 210.809 18.59ZM225.461 21.416H230.573V22.694H225.461V21.416ZM225.461 24.422H230.573V25.664H225.461V24.422ZM225.461 27.5H230.573V28.796H225.461V27.5ZM233.183 25.34H240.005V26.798H233.183V25.34ZM226.379 18.446H229.295V19.76H226.379V18.446ZM231.941 17.726H238.835V19.148H231.941V17.726ZM231.815 28.742H240.329V30.236H231.815V28.742ZM235.433 23.594H237.053V33.458H235.433V23.594ZM227.567 22.064H228.737V28.004H227.567V22.064ZM238.331 17.726H239.861C239.861 17.726 239.843 18.122 239.825 18.32C239.717 21.272 239.555 22.46 239.159 22.91C238.907 23.234 238.583 23.378 238.133 23.414C237.755 23.468 237.017 23.468 236.279 23.432C236.243 23 236.099 22.424 235.883 22.046C236.549 22.1 237.125 22.118 237.377 22.118C237.611 22.118 237.755 22.1 237.881 21.938C238.097 21.686 238.223 20.678 238.331 17.942V17.726ZM233.057 23.738L234.497 24.026C234.137 25.682 233.525 27.338 232.805 28.4C232.517 28.202 231.869 27.878 231.509 27.716C232.265 26.726 232.787 25.232 233.057 23.738ZM226.163 16.79L227.711 17.132C227.045 19.598 225.947 21.956 224.651 23.486C224.399 23.216 223.751 22.694 223.409 22.478C224.669 21.11 225.641 18.986 226.163 16.79ZM224.813 21.416H226.199V26.186C226.199 28.436 225.983 31.55 224.687 33.548C224.435 33.332 223.805 32.936 223.481 32.792C224.705 30.902 224.813 28.22 224.813 26.186V21.416ZM230.105 21.416H231.527V31.784C231.527 32.522 231.365 32.972 230.879 33.224C230.375 33.476 229.637 33.494 228.449 33.494C228.395 33.098 228.143 32.45 227.945 32.054C228.773 32.09 229.547 32.09 229.781 32.072C230.015 32.072 230.105 32 230.105 31.766V21.416ZM234.335 18.194H235.865C235.595 20.75 234.893 22.784 232.301 23.936C232.121 23.576 231.725 23.036 231.383 22.784C233.579 21.866 234.101 20.192 234.335 18.194ZM228.881 18.446H229.223L229.439 18.374L230.429 19.004C230.033 20.138 229.349 21.506 228.809 22.37C228.521 22.154 228.035 21.866 227.729 21.722C228.161 20.912 228.647 19.598 228.881 18.716V18.446ZM250.535 21.596V24.8H255.935V21.596H250.535ZM248.897 20.12H257.681V26.258H248.897V20.12ZM255.593 16.772L257.339 17.258C256.853 18.338 256.295 19.49 255.863 20.246L254.405 19.796C254.819 18.986 255.341 17.69 255.593 16.772ZM249.221 17.384L250.715 16.898C251.309 17.78 251.885 18.968 252.119 19.778L250.535 20.354C250.337 19.544 249.779 18.302 249.221 17.384ZM253.721 25.916H255.341V31.298C255.341 31.802 255.377 31.874 255.701 31.874C255.827 31.874 256.439 31.874 256.619 31.874C256.961 31.874 257.051 31.532 257.087 29.174C257.411 29.444 258.095 29.714 258.545 29.84C258.401 32.666 258.005 33.386 256.799 33.386C256.511 33.386 255.701 33.386 255.431 33.386C254.045 33.386 253.721 32.882 253.721 31.316V25.916ZM250.715 25.97H252.425C252.191 29.228 251.597 31.982 248.681 33.62C248.465 33.188 247.979 32.576 247.583 32.27C250.121 30.956 250.553 28.634 250.715 25.97ZM242.417 22.406H247.547V23.72H242.417V22.406ZM242.525 17.42H247.547V18.734H242.525V17.42ZM242.417 24.89H247.547V26.204H242.417V24.89ZM241.553 19.868H248.177V21.236H241.553V19.868ZM243.209 27.392H247.673V32.738H243.209V31.37H246.197V28.778H243.209V27.392ZM242.381 27.392H243.839V33.512H242.381V27.392Z" fill="black"/>
</g>
<defs>
<clipPath id="clip0_830_2">
<rect width="301.798" height="69.3032" fill="white"/>
</clipPath>
</defs>
</svg>
