<svg width="171" height="150" viewBox="0 0 171 150" fill="none" xmlns="http://www.w3.org/2000/svg">
<path d="M144.318 57.6156C144.872 58.2769 145.322 59.0183 145.651 59.8183C145.698 59.9329 145.755 60.0449 145.82 60.1516C154.998 74.9223 154.65 92.3023 154.644 92.4756C154.63 93.0276 154.819 93.5676 155.174 93.9903L165.343 106.109L120.042 144.12L110.115 132.289C109.527 131.589 108.574 131.312 107.702 131.589C97.0857 134.95 78.8297 133.237 52.135 105.98C44.8403 98.5276 38.9443 96.0503 31.9937 93.5836C30.9537 93.2143 29.9777 92.8969 29.0657 92.6009C23.9123 90.9263 21.9843 90.2983 20.9803 85.1036C20.6617 83.4556 21.0643 82.0369 22.2123 80.7636C24.8217 77.8516 30.727 76.2823 36.9017 76.8223C41.6203 77.2343 48.9177 81.9516 54.247 85.3969C56.6563 86.9543 58.7377 88.2996 60.371 89.1423C61.327 89.6356 62.4977 89.3876 63.1723 88.5463C63.8457 87.7049 63.831 86.5063 63.139 85.6809L6.84034 18.5876C3.83634 15.0076 4.30435 9.65161 7.88435 6.64761C11.4643 3.64361 16.8203 4.11294 19.8243 7.69294L50.0043 43.6596L63.0403 59.1956C63.843 60.1516 65.2683 60.2769 66.2243 59.4743C67.179 58.6716 67.3043 57.2463 66.503 56.2903L53.7057 41.0383C52.219 37.6036 53.1363 33.5796 56.0017 31.1756C59.5803 28.1716 64.9363 28.6409 67.9403 32.2209L71.247 36.1609L72.9417 38.1809L84.283 51.6969C85.0843 52.6529 86.511 52.7769 87.4657 51.9756C88.423 51.1729 88.5483 49.7476 87.7443 48.7916L76.643 35.5609C75.1563 32.1249 76.0723 28.1009 78.9377 25.6969C82.5177 22.6929 87.8737 23.1609 90.8777 26.7409L93.9417 30.3929L96.1217 32.9903L106.978 45.9303C107.78 46.8863 109.206 47.0103 110.163 46.2076C111.119 45.4063 111.243 43.9809 110.442 43.0249L99.823 30.3703C98.335 26.9343 99.251 22.9103 102.118 20.5063C105.696 17.5023 111.052 17.9716 114.056 21.5516L144.318 57.6156ZM99.211 17.0436C96.899 18.9849 95.4057 21.6129 94.8417 24.4343L94.3403 23.8356C89.7337 18.3476 81.5203 17.6276 76.0323 22.2343C73.7203 24.1743 72.227 26.8036 71.663 29.6249L71.4017 29.3143C66.7963 23.8263 58.5843 23.1076 53.095 27.7129C50.783 29.6543 49.2897 32.2823 48.7257 35.1036L23.287 4.78627C18.6803 -0.701726 10.4683 -1.42039 4.97901 3.18495C-0.51032 7.79161 -1.22766 16.0036 3.37767 21.4929L50.5857 77.7529C46.0403 75.0409 41.275 72.6676 37.295 72.3196C29.6617 71.6516 22.4203 73.7729 18.855 77.7369C16.7523 80.0689 15.9537 82.9129 16.5417 85.9609C18.0537 93.7743 22.2963 95.1529 27.6683 96.8983C28.5443 97.1836 29.483 97.4889 30.483 97.8423C37.0883 100.188 42.275 102.369 48.9057 109.141C76.067 136.877 95.615 139.468 107.598 136.322L118.032 148.757C118.835 149.713 120.26 149.838 121.216 149.036L169.978 108.118C170.935 107.317 171.059 105.892 170.256 104.936L159.17 91.7223C159.143 87.8276 158.468 72.0529 149.755 57.9196C149.256 56.7556 148.592 55.6783 147.78 54.7103L117.518 18.6449C112.912 13.1569 104.7 12.4383 99.211 17.0436Z" fill="#332D2B"/>
</svg>
