<svg width="230" height="97" viewBox="0 0 230 97" fill="none" xmlns="http://www.w3.org/2000/svg">
<path d="M3 13C3 6.92487 7.92487 2 14 2H216C222.075 2 227 6.92487 227 13V64C227 70.0751 222.075 75 216 75H126.5L95 92L106 73.5L14.1602 74.8375C8.02304 74.9268 3 69.9764 3 63.8386V13Z" fill="white"/>
<path d="M15.82 4.52004C9.58933 4.52004 4.52 9.58938 4.52 15.82V61.02C4.52 67.2494 9.58933 72.3187 15.82 72.3187H104.088C104.884 72.3187 105.621 72.7374 106.028 73.42C106.437 74.104 106.456 74.9494 106.077 75.6507L99.4813 87.9027L126.232 72.616C126.571 72.4214 126.959 72.3187 127.352 72.3187H213.561C219.792 72.3187 224.861 67.2494 224.861 61.02V15.82C224.861 9.58938 219.792 4.52004 213.561 4.52004H15.82ZM93.7493 96.04C93.1747 96.04 92.604 95.8214 92.1707 95.3987C91.4493 94.6934 91.2813 93.5974 91.7587 92.7094L100.304 76.8387H15.82C7.09733 76.8387 0 69.7427 0 61.02V15.82C0 7.09738 7.09733 4.57764e-05 15.82 4.57764e-05H213.561C222.285 4.57764e-05 229.381 7.09738 229.381 15.82V61.02C229.381 69.7427 222.285 76.8387 213.561 76.8387H127.953L94.8693 95.7427C94.52 95.9427 94.132 96.04 93.7493 96.04Z" fill="#332D2B"/>
<path d="M72.2005 41.9864L78.0205 43.8317C77.1272 47.0757 75.6445 49.4864 73.5685 51.061C71.4952 52.6357 68.8618 53.4224 65.6712 53.4224C61.7245 53.4224 58.4792 52.0744 55.9378 49.377C53.3952 46.681 52.1245 42.993 52.1245 38.3157C52.1245 33.3677 53.4018 29.525 55.9578 26.7877C58.5112 24.0504 61.8725 22.681 66.0365 22.681C69.6725 22.681 72.6258 23.7557 74.8965 25.905C76.2485 27.177 77.2632 29.001 77.9392 31.381L71.9978 32.7997C71.6458 31.2597 70.9125 30.0424 69.7978 29.149C68.6818 28.2584 67.3272 27.8117 65.7312 27.8117C63.5285 27.8117 61.7392 28.6024 60.3685 30.1837C58.9965 31.765 58.3098 34.3277 58.3098 37.869C58.3098 41.6277 58.9858 44.305 60.3378 45.901C61.6885 47.4944 63.4472 48.2917 65.6098 48.2917C67.2045 48.2917 68.5765 47.7864 69.7272 46.7717C70.8765 45.7584 71.7005 44.1637 72.2005 41.9864Z" fill="#332D2B"/>
<path d="M83.3335 52.916V23.4307H89.3362V47.908H104.26V52.916H83.3335Z" fill="#332D2B"/>
<path d="M108.359 23.1875H114.361V52.9155H108.359V23.1875Z" fill="#332D2B"/>
<path d="M139.099 41.9864L144.919 43.8317C144.027 47.0757 142.543 49.4864 140.468 51.061C138.394 52.6357 135.76 53.4224 132.571 53.4224C128.623 53.4224 125.378 52.0744 122.836 49.377C120.294 46.681 119.023 42.993 119.023 38.3157C119.023 33.3677 120.302 29.525 122.856 26.7877C125.411 24.0504 128.771 22.681 132.935 22.681C136.571 22.681 139.526 23.7557 141.796 25.905C143.148 27.177 144.163 29.001 144.839 31.381L138.898 32.7997C138.546 31.2597 137.811 30.0424 136.696 29.149C135.58 28.2584 134.227 27.8117 132.631 27.8117C130.427 27.8117 128.639 28.6024 127.267 30.1837C125.895 31.765 125.208 34.3277 125.208 37.869C125.208 41.6277 125.886 44.305 127.238 45.901C128.588 47.4944 130.347 48.2917 132.51 48.2917C134.104 48.2917 135.476 47.7864 136.626 46.7717C137.775 45.7584 138.599 44.1637 139.099 41.9864Z" fill="#332D2B"/>
<path d="M150.151 52.916V23.188H156.154V36.3893L168.282 23.188H176.351L165.158 34.7667L176.959 52.916H169.192L161.02 38.9653L156.154 43.9333V52.916H150.151Z" fill="#332D2B"/>
</svg>
