<svg xmlns="http://www.w3.org/2000/svg" width="71" height="128" viewBox="0 0 71 128" fill="none">
  <g clip-path="url(#clip0_472_39)">
    <path d="M21.2535 115.396C22.4838 109.138 21.9053 102.472 17.7629 97.6233C15.2939 94.7331 12.1288 91.5372 9.57406 88.7224C2.76536 81.2206 -0.28134 69.8416 2.57196 60.1208C3.11616 58.267 3.63626 57.1503 4.94556 55.7297C6.25486 54.309 8.92966 53.5728 10.7986 54.0624C13.4113 54.7468 14.7018 57.7105 15.064 60.387C15.4261 63.0635 15.2663 65.9155 16.541 68.2967C18.2844 71.5532 22.4367 73.0083 26.0756 72.373C27.5273 72.1196 28.9633 71.5621 30.0329 70.5483C32.8888 67.8411 32.1785 63.1969 31.2045 59.3843C30.7145 57.4664 30.1961 55.5126 29.1077 53.8592C28.0192 52.2058 26.2427 50.8766 24.2634 50.8439C20.1118 50.7754 16.8843 56.1359 12.8839 55.0231C10.6731 54.4081 9.43036 51.8582 9.64926 49.5739C9.86816 47.2896 11.2178 45.2706 12.7337 43.5479C15.4431 40.4691 18.8256 37.9859 22.5749 36.3236C24.9185 35.2844 27.4553 34.5571 30.0163 34.6753C34.1598 34.8667 37.9499 37.2735 40.7081 40.3716L42.3103 41.5088C42.6338 33.0565 39.6013 24.5214 34.0175 18.1678C32.3968 16.3238 30.5611 14.643 29.2524 12.5659C27.9436 10.4887 27.2125 7.86082 28.0656 5.55872C29.4798 1.74232 34.7245 0.59552 38.4369 2.26332C40.5289 3.20322 42.6415 4.97982 44.4565 6.97912L45.523 8.04832C44.7923 6.46502 45.067 4.55382 46.8628 3.60282C48.6587 2.65172 51.0172 3.38642 52.6443 4.60372C54.2715 5.82112 55.3474 7.62572 56.2703 9.43632C56.8583 10.59 57.0714 10.8089 57.5668 12.0049L57.7979 10.8334C58.358 9.63432 59.9888 9.24782 61.2303 9.70652C62.4716 10.1652 63.3746 11.2451 64.0873 12.3603C66.2897 15.8069 67.4132 22.6969 68.0575 26.7361C69.6429 36.6761 66.9548 43.6237 64.2903 60.1805C63.5714 64.6483 60.5061 82.9925 59.8434 87.469C58.442 96.9343 58.8326 110.31 58.8326 110.31" fill="white"/>
    <path d="M21.2558 116.918C21.1582 116.918 21.0595 116.909 20.9599 116.89C20.1357 116.728 19.5976 115.927 19.7597 115.102C21.0781 108.393 19.958 102.537 16.6054 98.6124C15.1006 96.8516 13.3105 94.9503 11.5791 93.1114C10.4941 91.9591 9.4258 90.8243 8.4472 89.7462C1.1445 81.7003 -1.8037 69.6221 1.1113 59.6924C1.6836 57.7432 2.2851 56.3692 3.8261 54.6973C4.9306 53.4991 6.707 52.6885 8.4883 52.4551C8.1582 51.4591 8.041 50.4034 8.1338 49.4288C8.3506 47.1641 9.4492 44.9757 11.5908 42.5421C14.4375 39.3077 18.0224 36.6758 21.958 34.9317C24.916 33.6202 27.5654 33.0391 30.0869 33.1544C34.2793 33.3477 38.4551 35.5508 41.8447 39.3585C44.7597 42.6339 46.6904 46.5147 48.5576 50.2676C48.9316 51.0196 48.625 51.9337 47.872 52.3087C47.1191 52.6837 46.206 52.376 45.831 51.6231C44.0527 48.0499 42.2148 44.3536 39.5703 41.3829C36.7724 38.2403 33.2636 36.3487 29.9463 36.1954C27.9131 36.1114 25.708 36.5997 23.1924 37.7149C19.6553 39.2823 16.4345 41.6475 13.876 44.5538C12.1797 46.4825 11.3174 48.1241 11.165 49.7198C11.0537 50.8799 11.4775 52.2618 12.3515 53.0362C12.6123 53.17 12.8633 53.3233 13.1045 53.4952C13.165 53.5186 13.2275 53.5391 13.292 53.5567C14.7656 53.9688 16.3027 52.96 18.0771 51.7921C19.8398 50.6329 21.8349 49.3204 24.1845 49.3204C24.2197 49.3204 24.2539 49.3214 24.289 49.3214C26.6035 49.3604 28.8799 50.7442 30.3789 53.0225C31.6406 54.9376 32.2168 57.1944 32.6797 59.0069C33.7451 63.1788 34.5273 68.3858 31.081 71.6524C29.9043 72.7686 28.2636 73.5362 26.3379 73.8731C21.7353 74.6739 17.1601 72.6778 15.1992 69.0157C14.1152 66.9903 13.9355 64.7989 13.7617 62.6788C13.7041 61.9786 13.6474 61.2794 13.5547 60.5909C13.333 58.9473 12.6972 57.1124 11.5488 56.1397C11.25 55.9942 10.9707 55.8233 10.7119 55.6329C10.6142 55.5948 10.5146 55.5626 10.4131 55.5352C9.0527 55.1798 6.9844 55.7637 6.0644 56.7618C4.9092 58.0147 4.5049 58.9434 4.0332 60.5499C1.4062 69.4991 4.0859 80.4102 10.7011 87.6993C11.6689 88.7647 12.7246 89.8858 13.7959 91.0235C15.5517 92.8887 17.3681 94.8174 18.9199 96.6339C22.8896 101.281 24.249 108.048 22.748 115.69C22.6054 116.415 21.9687 116.918 21.2558 116.918ZM15.5195 56.501C16.0263 57.5645 16.3857 58.8048 16.5722 60.1827C16.6728 60.9229 16.7353 61.6768 16.7969 62.4307C16.9521 64.3233 17.0986 66.1114 17.8838 67.5792C19.3867 70.3878 23.0117 71.3614 25.8135 70.8731C26.7441 70.711 28.0498 70.3301 28.9853 69.4434C31.2812 67.2667 30.5888 63.1251 29.7295 59.7608C29.3017 58.085 28.8164 56.1856 27.8359 54.6964C27.1054 53.587 25.7773 52.3917 24.2383 52.3663C24.2207 52.3653 24.2031 52.3653 24.1855 52.3653C22.7461 52.3653 21.291 53.3233 19.751 54.336C18.459 55.1856 17.0615 56.1055 15.5195 56.501Z" fill="#4C4C4C"/>
    <path d="M42.3115 43.0313C42.292 43.0313 42.2724 43.0313 42.2519 43.0303C41.4121 42.9981 40.7568 42.2911 40.789 41.4503C41.0986 33.3682 38.2129 25.2481 32.874 19.1729C32.4131 18.6485 31.9345 18.1387 31.457 17.628C30.2344 16.3233 28.9707 14.9737 27.9638 13.377C26.1953 10.5704 25.7129 7.52843 26.6377 5.03033C27.3388 3.13783 28.8506 1.62313 30.8945 0.766732C33.4267 -0.292868 36.5537 -0.251868 39.0605 0.875132C43.0996 2.68853 47.1152 7.25103 49.3037 10.9688C54.914 20.503 58.1181 28.4522 57.8926 40.876C57.8769 41.7178 57.1513 42.4151 56.3428 42.3712C55.5019 42.3555 54.833 41.6622 54.8476 40.8214C55.0615 29.0557 52.1426 21.796 46.6787 12.5137C44.7988 9.31943 41.2226 5.18373 37.8125 3.65243C36.0498 2.86043 33.8496 2.83013 32.0713 3.57533C31.1816 3.94833 30.0117 4.68663 29.4931 6.08803C28.6504 8.36333 29.9443 10.8087 30.54 11.754C31.3916 13.1036 32.5029 14.2901 33.6787 15.546C34.1787 16.0801 34.6797 16.6143 35.1611 17.1632C41.0097 23.8184 44.1709 32.713 43.832 41.5674C43.8008 42.3878 43.126 43.0313 42.3115 43.0313Z" fill="#4C4C4C"/>
    <path d="M61.2334 41.1417C61.1601 41.1417 61.0859 41.1368 61.0107 41.126C60.1787 41.004 59.6035 40.2305 59.7246 39.3985C61.1806 29.4659 59.4717 19.0704 54.914 10.128C54.0908 8.51279 53.1347 6.87209 51.7324 5.82229C50.5722 4.95509 48.7773 4.30959 47.5752 4.94829C46.1933 5.67979 46.7744 7.12699 46.9053 7.41019C47.2568 8.17389 46.9238 9.07819 46.1601 9.43069C45.3994 9.78029 44.4931 9.45029 44.1396 8.68559C42.9687 6.14749 43.7949 3.50399 46.1494 2.25689C48.7002 0.909193 51.7334 2.02059 53.5566 3.38479C55.4629 4.81159 56.6836 6.89559 57.6269 8.74519C62.4687 18.2452 64.2842 29.2882 62.7383 39.8399C62.6269 40.5967 61.9765 41.1417 61.2334 41.1417Z" fill="#4C4C4C"/>
    <path d="M58.832 111.833C58.0117 111.833 57.3349 111.181 57.3115 110.356C57.2949 109.804 56.9326 96.7354 58.3379 87.2462C58.7832 84.2354 60.2783 75.1768 61.4795 67.8985C62.0566 64.3985 62.5498 61.4132 62.7871 59.9385C63.5332 55.3048 64.2773 51.4356 64.9345 48.0225C66.6308 39.2051 67.6553 33.8829 66.5537 26.9766C65.9648 23.2833 64.8681 16.4083 62.8037 13.1807C62.0791 12.0469 61.4111 11.3966 60.7021 11.1339C60.126 10.9219 59.3545 11.0938 59.1777 11.4766C58.8213 12.2383 57.914 12.5665 57.1543 12.213C56.3926 11.8575 56.0625 10.9512 56.4179 10.1895C57.373 8.1446 59.9345 7.6046 61.7568 8.2774C63.5498 8.9405 64.6777 10.4571 65.3701 11.5401C67.7744 15.3028 68.9365 22.5841 69.5615 26.4962C70.747 33.9327 69.624 39.7667 67.9248 48.5977C67.2715 51.9903 66.5322 55.8341 65.7929 60.4229C65.5556 61.8985 65.0625 64.8887 64.4834 68.3936C63.2842 75.6612 61.791 84.7061 61.3496 87.6915C59.9844 96.918 60.3506 110.134 60.3545 110.266C60.3789 111.107 59.7178 111.808 58.8779 111.832C58.8623 111.833 58.8476 111.833 58.832 111.833Z" fill="#4C4C4C"/>
    <path d="M15.2494 111.911V121.885C15.2494 124.124 17.0642 125.939 19.303 125.939H61.1937C63.4324 125.939 65.2473 124.124 65.2473 121.885V111.911C65.2473 109.672 63.4324 107.857 61.1937 107.857H19.303C17.0642 107.857 15.2494 109.672 15.2494 111.911Z" fill="#7EB8A9"/>
    <path d="M61.1932 127.461H19.3026C16.2274 127.461 13.7264 124.96 13.7264 121.885V111.91C13.7264 108.835 16.2274 106.334 19.3026 106.334H61.1932C64.2684 106.334 66.7694 108.835 66.7694 111.91V121.885C66.7694 124.96 64.2684 127.461 61.1932 127.461ZM19.3026 109.379C17.9071 109.379 16.7714 110.515 16.7714 111.91V121.885C16.7714 123.28 17.9071 124.416 19.3026 124.416H61.1932C62.5887 124.416 63.7245 123.28 63.7245 121.885V111.91C63.7245 110.515 62.5887 109.379 61.1932 109.379H19.3026Z" fill="#4C4C4C"/>
  </g>
  <defs>
    <clipPath id="clip0_472_39">
      <rect width="70.0527" height="127.461" fill="white"/>
    </clipPath>
  </defs>
</svg>